<svg width="24" height="24" viewBox="0 0 24 24" fill="none" xmlns="http://www.w3.org/2000/svg">
<circle cx="12" cy="12" r="12" fill="black"/>
<path d="M7 14.8V11.68C7 10.4388 7.49307 9.24841 8.37074 8.37074C9.24841 7.49307 10.4388 7 11.68 7C12.9212 7 14.1116 7.49307 14.9893 8.37074C15.8669 9.24841 16.36 10.4388 16.36 11.68V14.8" stroke="white" stroke-width="1.04" stroke-linecap="round" stroke-linejoin="round"/>
<path d="M16.36 15.32C16.36 15.5958 16.2504 15.8603 16.0554 16.0554C15.8604 16.2504 15.5958 16.36 15.32 16.36H14.8C14.5242 16.36 14.2596 16.2504 14.0646 16.0554C13.8696 15.8603 13.76 15.5958 13.76 15.32V13.76C13.76 13.4841 13.8696 13.2196 14.0646 13.0246C14.2596 12.8295 14.5242 12.72 14.8 12.72H16.36V15.32ZM7 15.32C7 15.5958 7.10957 15.8603 7.30461 16.0554C7.49965 16.2504 7.76417 16.36 8.04 16.36H8.56C8.83583 16.36 9.10035 16.2504 9.29539 16.0554C9.49043 15.8603 9.6 15.5958 9.6 15.32V13.76C9.6 13.4841 9.49043 13.2196 9.29539 13.0246C9.10035 12.8295 8.83583 12.72 8.56 12.72H7V15.32Z" stroke="white" stroke-width="1.04" stroke-linecap="round" stroke-linejoin="round"/>
</svg>
