<svg width="22" height="22" viewBox="0 0 22 22" fill="none" xmlns="http://www.w3.org/2000/svg">
<path d="M14.2795 8.78729L12.0826 10.9841L14.2795 13.181L13.181 14.2794L10.9842 12.0825L8.78736 14.2794L7.68894 13.181L9.88578 10.9841L7.68894 8.78729L8.78736 7.68887L10.9842 9.88571L13.181 7.68887M5.4921 5.49203C4.77087 6.21326 4.19875 7.06949 3.80843 8.01183C3.4181 8.95416 3.2172 9.96415 3.2172 10.9841C3.2172 13.0441 4.0355 15.0196 5.4921 16.4762C6.94869 17.9328 8.92426 18.7511 10.9842 18.7511C12.0042 18.7511 13.0142 18.5502 13.9565 18.1599C14.8988 17.7696 15.7551 17.1975 16.4763 16.4762C17.9329 15.0196 18.7512 13.0441 18.7512 10.9841C18.7512 8.92419 17.9329 6.94862 16.4763 5.49203C15.7551 4.7708 14.8988 4.19868 13.9565 3.80835C13.0142 3.41803 12.0042 3.21713 10.9842 3.21713C9.96422 3.21713 8.95423 3.41803 8.0119 3.80836C7.06956 4.19868 6.21333 4.7708 5.4921 5.49203Z" fill="black"/>
</svg>
