<svg width="16" height="15" viewBox="0 0 16 15" fill="none" xmlns="http://www.w3.org/2000/svg">
<path d="M8 0C3.85685 0 0.5 3.35685 0.5 7.5C0.5 11.6431 3.85685 15 8 15C12.1431 15 15.5 11.6431 15.5 7.5C15.5 3.35685 12.1431 0 8 0ZM8 13.5484C4.65827 13.5484 1.95161 10.8417 1.95161 7.5C1.95161 4.15827 4.65827 1.45161 8 1.45161C11.3417 1.45161 14.0484 4.15827 14.0484 7.5C14.0484 10.8417 11.3417 13.5484 8 13.5484ZM9.86895 10.3911L7.30141 8.5252C7.20766 8.45564 7.15323 8.34677 7.15323 8.23185V3.26613C7.15323 3.06653 7.31653 2.90323 7.51613 2.90323H8.48387C8.68347 2.90323 8.84677 3.06653 8.84677 3.26613V7.55141L10.8669 9.02117C11.0302 9.13911 11.0635 9.36593 10.9456 9.52923L10.377 10.3125C10.2591 10.4728 10.0323 10.5091 9.86895 10.3911Z" fill="black"/>
</svg>
