<svg width="10" height="16" viewBox="0 0 10 16" fill="none" xmlns="http://www.w3.org/2000/svg">
<path d="M6.33558 2.92446C7.14285 2.92446 7.79781 2.26951 7.79781 1.46223C7.79781 0.654958 7.14285 0 6.33558 0C5.5283 0 4.87335 0.654958 4.87335 1.46223C4.87335 2.26951 5.5283 2.92446 6.33558 2.92446ZM9.21435 7.46652L8.50455 7.10706L8.20906 6.21144C7.76125 4.85278 6.51226 3.90233 5.09573 3.89929C3.99905 3.89624 3.39284 4.20696 2.25351 4.66696C1.59551 4.93199 1.05631 5.43463 0.739493 6.07436L0.53539 6.48866C0.297777 6.96997 0.489695 7.55487 0.967967 7.79553C1.44319 8.03618 2.02199 7.84122 2.26265 7.3599L2.46675 6.9456C2.57338 6.73236 2.75006 6.56481 2.9694 6.47647L3.78581 6.14747L3.32277 7.99658C3.16436 8.63022 3.33495 9.30345 3.77667 9.78782L5.60141 11.7801C5.82075 12.0208 5.97611 12.3102 6.05532 12.6239L6.61279 14.8569C6.74378 15.3778 7.27384 15.6977 7.79476 15.5667C8.31568 15.4357 8.63555 14.9056 8.50455 14.3847L7.82827 11.6735C7.74907 11.3597 7.59371 11.0673 7.37437 10.8297L5.9883 9.31564L6.51226 7.22282L6.67981 7.72546C6.84127 8.21592 7.18855 8.62108 7.64549 8.8526L8.35528 9.21206C8.83051 9.45272 9.40931 9.25776 9.64997 8.77644C9.88454 8.29817 9.69262 7.70718 9.21435 7.46652ZM2.24133 11.7527C2.24133 11.7527 1.99762 12.2218 1.80875 12.4076L0.285592 13.9339C-0.0951974 14.3146 -0.0951974 14.933 0.285592 15.3138C0.666382 15.6946 1.28174 15.6946 1.66253 15.3138L3.47204 13.5043C3.65786 13.3185 3.80409 13.0961 3.90462 12.8494L5.25548 11.4617C3.57086 9.62481 4.07655 10.1884 3.81152 9.82587L2.24133 11.7527Z" fill="white"/>
</svg>
