<svg width="12" height="18" viewBox="0 0 12 18" fill="none" xmlns="http://www.w3.org/2000/svg">
<path d="M7.31055 3.37451C8.24205 3.37451 8.9978 2.61876 8.9978 1.68725C8.9978 0.755749 8.24205 0 7.31055 0C6.37905 0 5.6233 0.755749 5.6233 1.68725C5.6233 2.61876 6.37905 3.37451 7.31055 3.37451ZM10.6323 8.61554L9.81331 8.20075L9.47234 7.16731C8.95562 5.59957 7.51443 4.50286 5.8799 4.49934C4.61446 4.49583 3.91495 4.85437 2.6003 5.38515C1.84104 5.69096 1.21886 6.27096 0.853293 7.00913L0.617781 7.48718C0.343602 8.04257 0.565054 8.71747 1.11693 8.99517C1.66528 9.27286 2.33315 9.04789 2.61085 8.49251L2.84636 8.01445C2.96939 7.76839 3.17327 7.57506 3.42635 7.47312L4.3684 7.09349L3.83411 9.22716C3.65132 9.95831 3.84817 10.7351 4.35786 11.294L6.46341 13.5929C6.7165 13.8706 6.89577 14.2046 6.98716 14.5666L7.63043 17.1432C7.78157 17.7443 8.3932 18.1134 8.99429 17.9622C9.59537 17.8111 9.96446 17.1994 9.81331 16.5984L9.03295 13.4699C8.94156 13.1078 8.76229 12.7704 8.5092 12.4962L6.90983 10.7492L7.51443 8.33433L7.70776 8.91432C7.89406 9.48025 8.29478 9.94776 8.82205 10.2149L9.64107 10.6297C10.1894 10.9074 10.8573 10.6824 11.135 10.127C11.4057 9.57516 11.1842 8.89323 10.6323 8.61554ZM2.58624 13.5613C2.47376 13.846 2.30503 14.1026 2.0871 14.317L0.329542 16.0781C-0.109847 16.5175 -0.109847 17.2311 0.329542 17.6705C0.76893 18.1098 1.47898 18.1098 1.91837 17.6705L4.00635 15.5825C4.22077 15.3681 4.38949 15.1115 4.50549 14.8267L4.98003 13.6386C3.03618 11.519 3.61968 12.1693 3.31387 11.751L2.58624 13.5613Z" fill="black"/>
</svg>
