<svg width="27" height="27" viewBox="0 0 27 27" fill="none" xmlns="http://www.w3.org/2000/svg">
<path d="M13.5 17.1C15.4882 17.1 17.1 15.4882 17.1 13.5C17.1 11.5118 15.4882 9.90002 13.5 9.90002C11.5118 9.90002 9.89999 11.5118 9.89999 13.5C9.89999 15.4882 11.5118 17.1 13.5 17.1Z" fill="white"/>
<path d="M10.1251 2.25L8.06634 4.5H4.50009C3.26259 4.5 2.25009 5.5125 2.25009 6.75V20.25C2.25009 21.4875 3.26259 22.5 4.50009 22.5H22.5001C23.7376 22.5 24.7501 21.4875 24.7501 20.25V6.75C24.7501 5.5125 23.7376 4.5 22.5001 4.5H18.9338L16.8751 2.25H10.1251ZM13.5001 19.125C10.3951 19.125 7.87509 16.605 7.87509 13.5C7.87509 10.395 10.3951 7.875 13.5001 7.875C16.6051 7.875 19.1251 10.395 19.1251 13.5C19.1251 16.605 16.6051 19.125 13.5001 19.125Z" fill="white"/>
</svg>
