<svg width="14" height="14" viewBox="0 0 14 14" fill="none" xmlns="http://www.w3.org/2000/svg">
<path d="M6.36741 2.26514H2.19276C1.87642 2.26514 1.57304 2.3908 1.34935 2.61449C1.12567 2.83817 1 3.14155 1 3.45789V11.8072C1 12.1235 1.12567 12.4269 1.34935 12.6506C1.57304 12.8743 1.87642 13 2.19276 13H10.5421C10.8584 13 11.1618 12.8743 11.3855 12.6506C11.6091 12.4269 11.7348 12.1235 11.7348 11.8072V7.63254" stroke="#0D0D0D" stroke-width="1.47758" stroke-linecap="round" stroke-linejoin="round"/>
<path d="M10.8403 1.37054C11.0775 1.13329 11.3993 1 11.7349 1C12.0704 1 12.3922 1.13329 12.6294 1.37054C12.8667 1.6078 13 1.92958 13 2.26511C13 2.60064 12.8667 2.92242 12.6294 3.15968L6.96382 8.82527L4.57831 9.42165L5.17469 7.03614L10.8403 1.37054Z" stroke="#0D0D0D" stroke-width="1.47758" stroke-linecap="round" stroke-linejoin="round"/>
</svg>
