<svg width="10" height="10" viewBox="0 0 10 10" fill="none" xmlns="http://www.w3.org/2000/svg">
<path d="M4.63257 1.8562H1.80724C1.59314 1.8562 1.38782 1.94125 1.23643 2.09264C1.08505 2.24402 1 2.44935 1 2.66344V8.3141C1 8.52819 1.08505 8.73351 1.23643 8.8849C1.38782 9.03629 1.59314 9.12133 1.80724 9.12133H7.4579C7.67199 9.12133 7.87731 9.03629 8.0287 8.8849C8.18009 8.73351 8.26513 8.52819 8.26513 8.3141V5.48877" stroke="#B5B5B5" stroke-linecap="round" stroke-linejoin="round"/>
<path d="M7.65987 1.25078C7.82044 1.09021 8.03822 1 8.2653 1C8.49238 1 8.71016 1.09021 8.87073 1.25078C9.03129 1.41135 9.1215 1.62912 9.1215 1.8562C9.1215 2.08328 9.03129 2.30106 8.87073 2.46163L5.03635 6.29601L3.42188 6.69963L3.82549 5.08515L7.65987 1.25078Z" stroke="#B5B5B5" stroke-linecap="round" stroke-linejoin="round"/>
</svg>
