<svg width="15" height="15" viewBox="0 0 15 15" fill="none" xmlns="http://www.w3.org/2000/svg">
<path d="M6.00369 1.50015C4.80948 1.50015 3.66418 1.97457 2.81975 2.81905C1.97532 3.66354 1.50092 4.8089 1.50092 6.00317C1.50092 7.19745 1.97532 8.34281 2.81975 9.18729C3.66418 10.0318 4.80948 10.5062 6.00369 10.5062C7.1979 10.5062 8.34319 10.0318 9.18762 9.18729C10.0321 8.34281 10.5065 7.19745 10.5065 6.00317C10.5065 4.8089 10.0321 3.66354 9.18762 2.81905C8.34319 1.97457 7.1979 1.50015 6.00369 1.50015ZM3.7085e-08 6.00317C0.000136829 5.04768 0.228304 4.10601 0.665538 3.25644C1.10277 2.40686 1.73645 1.67391 2.5139 1.11851C3.29135 0.563101 4.19012 0.201277 5.13552 0.063107C6.08092 -0.0750631 7.04564 0.0144103 7.94951 0.324091C8.85338 0.633772 9.67029 1.15472 10.3323 1.84363C10.9944 2.53254 11.4825 3.36953 11.756 4.28503C12.0296 5.20052 12.0807 6.16809 11.9051 7.10732C11.7296 8.04655 11.3324 8.9303 10.7466 9.68515L14.7893 13.7281C14.926 13.8697 15.0017 14.0592 15 14.256C14.9983 14.4528 14.9193 14.641 14.7802 14.7802C14.6411 14.9193 14.4528 14.9983 14.2561 15C14.0593 15.0017 13.8697 14.926 13.7282 14.7893L9.68545 10.7464C8.798 11.4354 7.73502 11.8616 6.61739 11.9764C5.49976 12.0913 4.37233 11.8902 3.3633 11.3961C2.35427 10.9019 1.50414 10.1345 0.909577 9.18118C0.315013 8.22782 -0.000124817 7.12675 3.7085e-08 6.00317Z" fill="#0D0D0D"/>
</svg>
