<svg width="8" height="13" viewBox="0 0 8 13" fill="none" xmlns="http://www.w3.org/2000/svg">
<path d="M5.00195 2.56302C5.6393 2.56302 6.15639 2.04593 6.15639 1.40859C6.15639 0.771242 5.6393 0.25415 5.00195 0.25415C4.36461 0.25415 3.84752 0.771242 3.84752 1.40859C3.84752 2.04593 4.36461 2.56302 5.00195 2.56302ZM7.27475 6.14899L6.71437 5.86519L6.48108 5.1581C6.12753 4.08544 5.14145 3.33505 4.02309 3.33265C3.15726 3.33024 2.67865 3.57556 1.77915 3.93873C1.25966 4.14797 0.83396 4.5448 0.583832 5.04987L0.422692 5.37696C0.235096 5.75696 0.386616 6.21874 0.764212 6.40874C1.1394 6.59874 1.59637 6.44481 1.78637 6.06481L1.94751 5.73772C2.03169 5.56937 2.17118 5.43709 2.34435 5.36734L2.98891 5.10759L2.62334 6.56747C2.49827 7.06773 2.63296 7.59925 2.98169 7.98166L4.42233 9.55458C4.5955 9.74458 4.71816 9.97306 4.78069 10.2208L5.22082 11.9837C5.32423 12.395 5.74272 12.6475 6.15399 12.5441C6.56525 12.4407 6.81779 12.0222 6.71437 11.6109L6.18044 9.4704C6.11791 9.22268 5.99525 8.99179 5.82208 8.80419L4.72778 7.60887L5.14145 5.95658L5.27373 6.35342C5.4012 6.74064 5.67538 7.06051 6.03614 7.2433L6.59652 7.5271C6.97171 7.7171 7.42867 7.56317 7.61868 7.18317C7.80387 6.80558 7.65235 6.33899 7.27475 6.14899ZM1.76953 9.53293C1.69257 9.72774 1.57713 9.90331 1.42801 10.05L0.225476 11.255C-0.0751586 11.5556 -0.0751586 12.0438 0.225476 12.3445C0.52611 12.6451 1.01194 12.6451 1.31257 12.3445L2.74118 10.9158C2.88789 10.7691 3.00334 10.5936 3.0827 10.3988L3.40739 9.58584C2.07738 8.13558 2.47663 8.58052 2.26738 8.29432L1.76953 9.53293Z" fill="black"/>
</svg>
