<svg width="45" height="45" viewBox="0 0 45 45" fill="none" xmlns="http://www.w3.org/2000/svg">
<circle cx="22.5" cy="22.5" r="22.5" fill="black"/>
<path d="M32.125 21.5644H15.8175L20.8088 15.5693C21.0421 15.2885 21.1544 14.9265 21.1209 14.563C21.0874 14.1994 20.9108 13.864 20.63 13.6306C20.3492 13.3972 19.9872 13.2849 19.6236 13.3184C19.26 13.352 18.9246 13.5285 18.6912 13.8093L11.8163 22.0594C11.77 22.125 11.7286 22.1939 11.6925 22.2656C11.6925 22.3344 11.6925 22.3756 11.5963 22.4444C11.5339 22.602 11.5013 22.7698 11.5 22.9394C11.5013 23.1089 11.5339 23.2767 11.5963 23.4344C11.5963 23.5031 11.5962 23.5444 11.6925 23.6131C11.7286 23.6848 11.77 23.7537 11.8163 23.8194L18.6912 32.0694C18.8205 32.2246 18.9824 32.3494 19.1654 32.435C19.3484 32.5205 19.548 32.5647 19.75 32.5644C20.0713 32.565 20.3826 32.4531 20.63 32.2481C20.7692 32.1327 20.8843 31.9909 20.9687 31.8309C21.053 31.671 21.105 31.4959 21.1216 31.3158C21.1382 31.1357 21.1191 30.9541 21.0654 30.7814C21.0118 30.6087 20.9245 30.4483 20.8088 30.3094L15.8175 24.3144H32.125C32.4897 24.3144 32.8394 24.1695 33.0973 23.9116C33.3551 23.6538 33.5 23.304 33.5 22.9394C33.5 22.5747 33.3551 22.2249 33.0973 21.9671C32.8394 21.7092 32.4897 21.5644 32.125 21.5644Z" fill="white"/>
</svg>
