<svg width="70" height="105" viewBox="0 0 70 105" fill="none" xmlns="http://www.w3.org/2000/svg">
<circle cx="35" cy="79" r="25.805" fill="#777777" fill-opacity="0.2" stroke="#D9D9D9" stroke-width="0.39"/>
<g filter="url(#filter0_d_57_656)">
<circle cx="35" cy="78.5" r="12" fill="white"/>
<circle cx="35" cy="78.5" r="11.8759" stroke="#D9D9D9" stroke-width="0.248276"/>
</g>
<path d="M35 73C31.6855 73 29 75.6855 29 79C29 82.3145 31.6855 85 35 85C38.3145 85 41 82.3145 41 79C41 75.6855 38.3145 73 35 73Z" fill="black"/>
<path d="M35 21.5V68" stroke="white" stroke-width="2"/>
<rect x="1.15" y="2.15" width="67.7" height="21.7" rx="10.85" fill="white"/>
<rect x="1.15" y="2.15" width="67.7" height="21.7" rx="10.85" stroke="#777777" stroke-width="0.3"/>
<path d="M24.456 9.312H25.52V14.952H24.456V9.312ZM23.488 11.144H24.856V11.992H23.488V11.144ZM23.488 12.736H24.856V13.576H23.488V12.736ZM19.344 10.08H23.408V10.912H19.344V10.08ZM21.424 11.176C22.432 11.176 23.16 11.776 23.16 12.632C23.16 13.488 22.432 14.088 21.424 14.088C20.416 14.088 19.688 13.488 19.688 12.632C19.688 11.776 20.416 11.176 21.424 11.176ZM21.424 11.992C20.992 11.992 20.688 12.224 20.688 12.632C20.688 13.048 20.992 13.272 21.424 13.272C21.856 13.272 22.16 13.048 22.16 12.632C22.16 12.224 21.856 11.992 21.424 11.992ZM20.896 9.288H21.96V10.592H20.896V9.288ZM20.616 15.736H25.68V16.584H20.616V15.736ZM20.616 14.488H21.688V16.128H20.616V14.488ZM32.0874 9.304H33.0954V16.712H32.0874V9.304ZM31.1994 12.144H32.4314V13.008H31.1994V12.144ZM30.4954 9.416H31.4874V16.376H30.4954V9.416ZM27.9994 10.456H28.8074V11.112C28.8074 12.944 28.4074 14.56 27.1754 15.304L26.5354 14.488C27.6474 13.848 27.9994 12.536 27.9994 11.112V10.456ZM28.2154 10.456H29.0314V11.112C29.0314 12.416 29.4074 13.648 30.5114 14.224L29.9034 15.032C28.6554 14.36 28.2154 12.832 28.2154 11.112V10.456ZM26.7754 10.056H30.1434V10.912H26.7754V10.056ZM38.3841 9.6C39.5121 9.6 40.3281 10.248 40.3281 11.184C40.3281 12.104 39.5121 12.768 38.3841 12.768C37.2641 12.768 36.4481 12.104 36.4481 11.184C36.4481 10.248 37.2641 9.6 38.3841 9.6ZM38.3841 10.464C37.8481 10.464 37.4641 10.72 37.4641 11.184C37.4641 11.64 37.8481 11.896 38.3841 11.896C38.9281 11.896 39.3121 11.64 39.3121 11.184C39.3121 10.72 38.9281 10.464 38.3841 10.464ZM37.8881 13.504H38.9521V16.488H37.8881V13.504ZM41.1281 9.304H42.1841V16.712H41.1281V9.304ZM36.1361 14.064L36.0081 13.2C37.3041 13.2 39.1361 13.184 40.7041 12.944L40.7761 13.72C39.1681 14.04 37.4161 14.056 36.1361 14.064ZM48.4314 9.304H49.5034V16.712H48.4314V9.304ZM45.1674 11.224H46.0074V11.608C46.0074 13.176 45.3114 14.752 43.9434 15.344L43.3754 14.528C44.5914 13.984 45.1674 12.728 45.1674 11.608V11.224ZM45.3994 11.224H46.2314V11.608C46.2314 12.672 46.8154 13.888 48.0394 14.408L47.4714 15.224C46.1034 14.656 45.3994 13.128 45.3994 11.608V11.224ZM43.6234 10.512H47.7434V11.352H43.6234V10.512ZM45.1674 9.472H46.2314V10.944H45.1674V9.472Z" fill="black"/>
<defs>
<filter id="filter0_d_57_656" x="19.6897" y="66.5" width="30.6207" height="30.6207" filterUnits="userSpaceOnUse" color-interpolation-filters="sRGB">
<feFlood flood-opacity="0" result="BackgroundImageFix"/>
<feColorMatrix in="SourceAlpha" type="matrix" values="0 0 0 0 0 0 0 0 0 0 0 0 0 0 0 0 0 0 127 0" result="hardAlpha"/>
<feOffset dy="3.31034"/>
<feGaussianBlur stdDeviation="1.65517"/>
<feComposite in2="hardAlpha" operator="out"/>
<feColorMatrix type="matrix" values="0 0 0 0 0 0 0 0 0 0 0 0 0 0 0 0 0 0 0.25 0"/>
<feBlend mode="normal" in2="BackgroundImageFix" result="effect1_dropShadow_57_656"/>
<feBlend mode="normal" in="SourceGraphic" in2="effect1_dropShadow_57_656" result="shape"/>
</filter>
</defs>
</svg>
