<svg width="45" height="45" viewBox="0 0 45 45" fill="none" xmlns="http://www.w3.org/2000/svg">
<circle cx="22.5" cy="22.5" r="22.5" fill="black"/>
<path fill-rule="evenodd" clip-rule="evenodd" d="M22.5008 14.3302C20.3249 14.3302 18.2381 15.1945 16.6995 16.7331C15.1609 18.2718 14.2965 20.3586 14.2965 22.5345C14.2965 24.7104 15.1609 26.7972 16.6995 28.3358C18.2381 29.8744 20.3249 30.7388 22.5008 30.7388C24.6767 30.7388 26.7635 29.8744 28.3021 28.3358C29.8407 26.7972 30.7051 24.7104 30.7051 22.5345C30.7051 20.3586 29.8407 18.2718 28.3021 16.7331C26.7635 15.1945 24.6767 14.3302 22.5008 14.3302ZM12.2454 22.5345C12.2454 16.8704 16.8368 12.2791 22.5008 12.2791C28.1649 12.2791 32.7562 16.8704 32.7562 22.5345C32.7562 28.1985 28.1649 32.7899 22.5008 32.7899C16.8368 32.7899 12.2454 28.1985 12.2454 22.5345Z" fill="white"/>
<path d="M22.5007 9.99847C22.7726 9.99847 23.0335 10.1065 23.2258 10.2988C23.4181 10.4912 23.5262 10.752 23.5262 11.024V12.0496C23.5262 12.3215 23.4181 12.5824 23.2258 12.7747C23.0335 12.967 22.7726 13.0751 22.5007 13.0751C22.2287 13.0751 21.9678 12.967 21.7755 12.7747C21.5832 12.5824 21.4751 12.3215 21.4751 12.0496V11.024C21.4751 10.752 21.5832 10.4912 21.7755 10.2988C21.9678 10.1065 22.2287 9.99847 22.5007 9.99847ZM22.5007 18.4323C21.4127 18.4323 20.3693 18.8645 19.6 19.6338C18.8307 20.4031 18.3985 21.4465 18.3985 22.5344C18.3985 23.6224 18.8307 24.6658 19.6 25.4351C20.3693 26.2044 21.4127 26.6366 22.5007 26.6366C23.5886 26.6366 24.632 26.2044 25.4013 25.4351C26.1706 24.6658 26.6028 23.6224 26.6028 22.5344C26.6028 21.4465 26.1706 20.4031 25.4013 19.6338C24.632 18.8645 23.5886 18.4323 22.5007 18.4323ZM16.3474 22.5344C16.3474 20.9025 16.9957 19.3374 18.1497 18.1834C19.3036 17.0295 20.8687 16.3812 22.5007 16.3812C24.1326 16.3812 25.6977 17.0295 26.8517 18.1834C28.0056 19.3374 28.6539 20.9025 28.6539 22.5344C28.6539 24.1664 28.0056 25.7315 26.8517 26.8854C25.6977 28.0394 24.1326 28.6877 22.5007 28.6877C20.8687 28.6877 19.3036 28.0394 18.1497 26.8854C16.9957 25.7315 16.3474 24.1664 16.3474 22.5344ZM10 22.1472C10 21.8752 10.108 21.6144 10.3004 21.4221C10.4927 21.2297 10.7535 21.1217 11.0255 21.1217H12.0511C12.3231 21.1217 12.5839 21.2297 12.7762 21.4221C12.9686 21.6144 13.0766 21.8752 13.0766 22.1472C13.0766 22.4192 12.9686 22.6801 12.7762 22.8724C12.5839 23.0647 12.3231 23.1728 12.0511 23.1728H11.0255C10.7535 23.1728 10.4927 23.0647 10.3004 22.8724C10.108 22.6801 10 22.4192 10 22.1472ZM31.9234 22.7267C31.9234 22.4548 32.0314 22.1939 32.2238 22.0016C32.4161 21.8093 32.6769 21.7012 32.9489 21.7012H33.9745C34.2465 21.7012 34.5073 21.8093 34.6996 22.0016C34.892 22.1939 35 22.4548 35 22.7267C35 22.9987 34.892 23.2596 34.6996 23.4519C34.5073 23.6442 34.2465 23.7523 33.9745 23.7523H32.9489C32.6769 23.7523 32.4161 23.6442 32.2238 23.4519C32.0314 23.2596 31.9234 22.9987 31.9234 22.7267ZM22.5007 31.909C22.7726 31.909 23.0335 32.0171 23.2258 32.2094C23.4181 32.4017 23.5262 32.6626 23.5262 32.9345V33.9601C23.5262 34.2321 23.4181 34.4929 23.2258 34.6853C23.0335 34.8776 22.7726 34.9856 22.5007 34.9856C22.2287 34.9856 21.9678 34.8776 21.7755 34.6853C21.5832 34.4929 21.4751 34.2321 21.4751 33.9601V32.9345C21.4751 32.6626 21.5832 32.4017 21.7755 32.2094C21.9678 32.0171 22.2287 31.909 22.5007 31.909Z" fill="white"/>
</svg>
