<svg width="18" height="18" viewBox="0 0 18 18" fill="none" xmlns="http://www.w3.org/2000/svg">
<path d="M17.1009 8.55837C17.1039 9.72396 16.8316 10.8738 16.3061 11.9142C15.683 13.1609 14.7251 14.2096 13.5397 14.9426C12.3543 15.6757 10.9882 16.0643 9.59441 16.0648C8.42881 16.0679 7.27899 15.7955 6.23858 15.27L1.20483 16.9479L2.88275 11.9142C2.35724 10.8738 2.08491 9.72396 2.08795 8.55837C2.08849 7.1646 2.47706 5.79851 3.21014 4.6131C3.94321 3.4277 4.99185 2.4698 6.23858 1.84671C7.27899 1.32119 8.42881 1.04887 9.59441 1.05191H10.036C11.8767 1.15346 13.6153 1.93039 14.9188 3.23395C16.2224 4.53751 16.9993 6.2761 17.1009 8.11681V8.55837Z" stroke="black" stroke-width="1.76623" stroke-linecap="round" stroke-linejoin="round"/>
</svg>
