<svg width="17" height="22" viewBox="0 0 17 22" fill="none" xmlns="http://www.w3.org/2000/svg">
<path d="M1.875 19.3751V1.875H15.6251V19.3751L8.12504 15.0001L1.875 19.3751Z" fill="white"/>
<path d="M16.3507 20.1875V20.1876C16.3507 20.2635 16.3298 20.3379 16.2903 20.4028C16.2507 20.4676 16.1941 20.5202 16.1266 20.555C16.0591 20.5897 15.9834 20.6052 15.9077 20.5997C15.832 20.5943 15.7592 20.568 15.6974 20.5239L8.8774 15.6525L8.5 15.3829L8.1226 15.6525L1.30257 20.5239C1.30251 20.524 1.30246 20.524 1.30241 20.524C1.24066 20.5681 1.16798 20.5943 1.09233 20.5997C1.01661 20.6052 0.940852 20.5897 0.87336 20.555C0.805867 20.5202 0.749252 20.4676 0.709728 20.4028C0.670204 20.338 0.649298 20.2635 0.649306 20.1876V20.1875V2.125C0.649306 1.73362 0.804781 1.35827 1.08153 1.08153C1.35827 0.80478 1.73362 0.649306 2.125 0.649306H14.875C15.2664 0.649306 15.6417 0.80478 15.9185 1.08153C16.1952 1.35827 16.3507 1.73362 16.3507 2.125V20.1875ZM15.5243 2.125V1.4757H14.875H2.125H1.47569V2.125V18.1231V19.3847L2.50236 18.6515L8.25993 14.5397C8.25997 14.5397 8.26001 14.5396 8.26004 14.5396C8.33008 14.4896 8.41397 14.4628 8.5 14.4628C8.58607 14.4628 8.67001 14.4897 8.74007 14.5397L14.4977 18.6505L15.5243 19.3834V18.122V2.125Z" fill="black" stroke="black" stroke-width="1.29861"/>
</svg>
