<svg width="18" height="16" viewBox="0 0 18 16" fill="none" xmlns="http://www.w3.org/2000/svg">
<path d="M8.12962 2.59052L8.93034 3.66077L9.73105 2.59052C10.4531 1.62533 11.6088 1 12.8954 1C15.0801 1 16.8607 2.78019 16.8607 4.99206C16.8607 5.94601 16.7087 6.82464 16.4448 7.64022L16.4448 7.64021L16.4428 7.64672C15.8089 9.65272 14.5028 11.2887 13.0663 12.5233C11.6254 13.7616 10.1109 14.5461 9.1619 14.869L9.16188 14.8689L9.1512 14.8727C9.15128 14.8726 9.15123 14.8727 9.15104 14.8727C9.14886 14.8734 9.12765 14.8798 9.08499 14.8859C9.04105 14.8921 8.98777 14.896 8.93034 14.896C8.8729 14.896 8.81962 14.8921 8.77568 14.8859C8.72946 14.8793 8.70842 14.8723 8.70947 14.8727L8.7095 14.8726L8.69877 14.869C7.74974 14.5461 6.23523 13.7616 4.79435 12.5233C3.35787 11.2887 2.0518 9.65272 1.4179 7.64672L1.41792 7.64672L1.41582 7.64022C1.15196 6.82464 1 5.94601 1 4.99206C1 2.78019 2.78061 1 4.96527 1C6.25185 1 7.40752 1.62533 8.12962 2.59052Z" fill="white" stroke="black" stroke-width="2"/>
</svg>
