<svg width="18" height="18" viewBox="0 0 18 18" fill="none" xmlns="http://www.w3.org/2000/svg">
<path d="M1.20483 14.3505V9.05178C1.20483 6.94383 2.04221 4.92222 3.53275 3.43168C5.0233 1.94114 7.0449 1.10376 9.15285 1.10376C11.2608 1.10376 13.2824 1.94114 14.7729 3.43168C16.2635 4.92222 17.1009 6.94383 17.1009 9.05178V14.3505" stroke="black" stroke-width="1.76623" stroke-linecap="round" stroke-linejoin="round"/>
<path d="M17.1009 15.2336C17.1009 15.702 16.9148 16.1512 16.5835 16.4825C16.2523 16.8137 15.8031 16.9998 15.3346 16.9998H14.4515C13.9831 16.9998 13.5338 16.8137 13.2026 16.4825C12.8714 16.1512 12.6853 15.702 12.6853 15.2336V12.5842C12.6853 12.1158 12.8714 11.6665 13.2026 11.3353C13.5338 11.0041 13.9831 10.818 14.4515 10.818H17.1009V15.2336ZM1.20483 15.2336C1.20483 15.702 1.39092 16.1512 1.72215 16.4825C2.05338 16.8137 2.50263 16.9998 2.97106 16.9998H3.85417C4.3226 16.9998 4.77185 16.8137 5.10308 16.4825C5.43431 16.1512 5.6204 15.702 5.6204 15.2336V12.5842C5.6204 12.1158 5.43431 11.6665 5.10308 11.3353C4.77185 11.0041 4.3226 10.818 3.85417 10.818H1.20483V15.2336Z" stroke="black" stroke-width="1.76623" stroke-linecap="round" stroke-linejoin="round"/>
</svg>
