<svg width="20" height="20" viewBox="0 0 20 20" fill="none" xmlns="http://www.w3.org/2000/svg">
<path d="M7.98121 2.31999C6.96278 2.31999 5.98606 2.72456 5.26592 3.4447C4.54578 4.16484 4.14121 5.14156 4.14121 6.15999C4.14121 7.17843 4.54578 8.15514 5.26592 8.87528C5.98606 9.59542 6.96278 9.99999 7.98121 9.99999C8.99964 9.99999 9.97636 9.59542 10.6965 8.87528C11.4166 8.15514 11.8212 7.17843 11.8212 6.15999C11.8212 5.14156 11.4166 4.16484 10.6965 3.4447C9.97636 2.72456 8.99964 2.31999 7.98121 2.31999ZM2.22121 6.15999C2.22121 4.63235 2.82806 3.16727 3.90827 2.08706C4.98848 1.00685 6.45356 0.399994 7.98121 0.399994C9.50886 0.399994 10.9739 1.00685 12.0541 2.08706C13.1344 3.16727 13.7412 4.63235 13.7412 6.15999C13.7412 7.68764 13.1344 9.15272 12.0541 10.2329C10.9739 11.3131 9.50886 11.92 7.98121 11.92C6.45356 11.92 4.98848 11.3131 3.90827 10.2329C2.82806 9.15272 2.22121 7.68764 2.22121 6.15999ZM14.5361 2.08671C14.6252 1.99746 14.7311 1.92665 14.8477 1.87834C14.9642 1.83003 15.0891 1.80516 15.2153 1.80516C15.3414 1.80516 15.4664 1.83003 15.5829 1.87834C15.6995 1.92665 15.8053 1.99746 15.8945 2.08671C16.4295 2.62159 16.8538 3.25661 17.1434 3.95551C17.4329 4.65441 17.5819 5.4035 17.5819 6.15999C17.5819 6.91649 17.4329 7.66558 17.1434 8.36448C16.8538 9.06338 16.4295 9.6984 15.8945 10.2333C15.8053 10.3225 15.6994 10.3932 15.5829 10.4415C15.4663 10.4898 15.3414 10.5146 15.2153 10.5146C15.0891 10.5146 14.9642 10.4898 14.8477 10.4415C14.7312 10.3932 14.6253 10.3225 14.5361 10.2333C14.4469 10.1441 14.3761 10.0382 14.3279 9.92165C14.2796 9.80512 14.2548 9.68021 14.2548 9.55407C14.2548 9.42793 14.2796 9.30303 14.3279 9.18649C14.3761 9.06996 14.4469 8.96407 14.5361 8.87487C15.256 8.15477 15.6604 7.17822 15.6604 6.15999C15.6604 5.14176 15.256 4.16522 14.5361 3.44511C14.4468 3.35596 14.376 3.25008 14.3277 3.13354C14.2794 3.01699 14.2545 2.89207 14.2545 2.76591C14.2545 2.63976 14.2794 2.51483 14.3277 2.39829C14.376 2.28175 14.4468 2.17587 14.5361 2.08671ZM15.21 14.5667C15.2719 14.32 15.4292 14.1079 15.6474 13.977C15.8655 13.8461 16.1267 13.8072 16.3735 13.8688C17.6484 14.1875 18.4558 15.0016 18.9194 15.9309C19.3687 16.8285 19.5012 17.8317 19.5012 18.64C19.5012 18.8946 19.4001 19.1388 19.22 19.3188C19.04 19.4989 18.7958 19.6 18.5412 19.6C18.2866 19.6 18.0424 19.4989 17.8624 19.3188C17.6824 19.1388 17.5812 18.8946 17.5812 18.64C17.5812 18.0093 17.4737 17.3315 17.203 16.7891C16.9467 16.2774 16.553 15.8925 15.9079 15.7312C15.6612 15.6693 15.4491 15.512 15.3182 15.2939C15.1874 15.0757 15.1484 14.8135 15.21 14.5667ZM4.62121 15.76C3.41161 15.76 2.22121 16.9245 2.22121 18.64C2.22121 18.8946 2.12007 19.1388 1.94003 19.3188C1.76 19.4989 1.51582 19.6 1.26121 19.6C1.0066 19.6 0.762421 19.4989 0.582386 19.3188C0.402351 19.1388 0.301208 18.8946 0.301208 18.64C0.301208 16.1133 2.11849 13.84 4.62121 13.84H11.3412C13.8439 13.84 15.6612 16.1133 15.6612 18.64C15.6612 18.8946 15.5601 19.1388 15.38 19.3188C15.2 19.4989 14.9558 19.6 14.7012 19.6C14.4466 19.6 14.2024 19.4989 14.0224 19.3188C13.8424 19.1388 13.7412 18.8946 13.7412 18.64C13.7412 16.9245 12.5508 15.76 11.3412 15.76H4.62121Z" fill="black"/>
</svg>
