<svg width="16" height="19" viewBox="0 0 16 19" fill="none" xmlns="http://www.w3.org/2000/svg">
<path d="M14.5512 17.35V17.3501C14.5512 17.4144 14.5335 17.4774 14.5001 17.5323C14.4666 17.5872 14.4186 17.6318 14.3614 17.6613C14.3043 17.6907 14.2401 17.7038 14.176 17.6992C14.1119 17.6945 14.0503 17.6724 13.998 17.6351C13.998 17.635 13.9979 17.635 13.9979 17.635L8.22091 13.5086L7.90123 13.2802L7.58155 13.5086L1.80458 17.635C1.80456 17.635 1.80454 17.635 1.80452 17.635C1.8045 17.635 1.80448 17.635 1.80445 17.6351C1.75214 17.6724 1.69058 17.6945 1.6265 17.6992C1.56236 17.7038 1.49819 17.6907 1.44102 17.6613C1.38385 17.6318 1.33589 17.5872 1.30241 17.5323C1.26894 17.4774 1.25123 17.4144 1.25123 17.3501V17.35V2.05C1.25123 1.71848 1.38293 1.40054 1.61735 1.16612C1.85177 0.931696 2.16971 0.8 2.50123 0.8H13.3012C13.6328 0.8 13.9507 0.931696 14.1851 1.16612C14.4195 1.40054 14.5512 1.71848 14.5512 2.05V17.35ZM13.8512 2.05V1.5H13.3012H2.50123H1.95123V2.05V15.6013V16.6699L2.82087 16.0489L7.69788 12.566C7.69791 12.5659 7.69794 12.5659 7.69797 12.5659C7.7573 12.5236 7.82836 12.5008 7.90123 12.5008C7.97413 12.5008 8.04521 12.5236 8.10455 12.5659C8.10456 12.5659 8.10457 12.5659 8.10458 12.566L12.9816 16.048L13.8512 16.6689V15.6004V2.05Z" fill="#0D0D0D" stroke="black" stroke-width="1.1"/>
</svg>
