<svg width="18" height="20" viewBox="0 0 18 20" fill="none" xmlns="http://www.w3.org/2000/svg">
<path d="M8.90123 2.40001C7.86394 2.40001 6.86913 2.81208 6.13565 3.54555C5.40218 4.27903 4.99012 5.27384 4.99012 6.31113C4.99012 7.34842 5.40218 8.34323 6.13565 9.0767C6.86913 9.81018 7.86394 10.2222 8.90123 10.2222C9.93852 10.2222 10.9333 9.81018 11.6668 9.0767C12.4003 8.34323 12.8123 7.34842 12.8123 6.31113C12.8123 5.27384 12.4003 4.27903 11.6668 3.54555C10.9333 2.81208 9.93852 2.40001 8.90123 2.40001ZM3.03456 6.31113C3.03456 4.75519 3.65265 3.26298 4.75287 2.16277C5.85308 1.06255 7.34529 0.444458 8.90123 0.444458C10.4572 0.444458 11.9494 1.06255 13.0496 2.16277C14.1498 3.26298 14.7679 4.75519 14.7679 6.31113C14.7679 7.86707 14.1498 9.35928 13.0496 10.4595C11.9494 11.5597 10.4572 12.1778 8.90123 12.1778C7.34529 12.1778 5.85308 11.5597 4.75287 10.4595C3.65265 9.35928 3.03456 7.86707 3.03456 6.31113ZM4.99012 16.0889C4.21215 16.0889 3.46604 16.398 2.91594 16.9481C2.36583 17.4982 2.05678 18.2443 2.05678 19.0222C2.05678 19.2816 1.95377 19.5303 1.7704 19.7136C1.58703 19.897 1.33833 20 1.079 20C0.819682 20 0.57098 19.897 0.387611 19.7136C0.204242 19.5303 0.101227 19.2816 0.101227 19.0222C0.101227 17.7256 0.616305 16.4821 1.53315 15.5653C2.44999 14.6484 3.6935 14.1334 4.99012 14.1334H12.8123C14.109 14.1334 15.3525 14.6484 16.2693 15.5653C17.1861 16.4821 17.7012 17.7256 17.7012 19.0222C17.7012 19.2816 17.5982 19.5303 17.4148 19.7136C17.2315 19.897 16.9828 20 16.7234 20C16.4641 20 16.2154 19.897 16.0321 19.7136C15.8487 19.5303 15.7457 19.2816 15.7457 19.0222C15.7457 18.2443 15.4366 17.4982 14.8865 16.9481C14.3364 16.398 13.5903 16.0889 12.8123 16.0889H4.99012Z" fill="#0D0D0D"/>
</svg>
