<svg width="18" height="28" viewBox="0 0 18 28" fill="none" xmlns="http://www.w3.org/2000/svg">
<path d="M11.397 5.79919C12.7218 5.79919 13.7966 4.72437 13.7966 3.39959C13.7966 2.07482 12.7218 1 11.397 1C10.0722 1 8.9974 2.07482 8.9974 3.39959C8.9974 4.72437 10.0722 5.79919 11.397 5.79919ZM16.1212 13.2529L14.9564 12.663L14.4715 11.1933C13.7366 8.96365 11.6869 7.40392 9.36234 7.39892C7.56264 7.39392 6.56781 7.90383 4.69813 8.65871C3.61831 9.09363 2.73346 9.91849 2.21354 10.9683L1.8786 11.6482C1.48867 12.4381 1.80361 13.3979 2.58848 13.7928C3.36835 14.1878 4.31819 13.8678 4.71312 13.078L5.04807 12.3981C5.22304 12.0481 5.51299 11.7732 5.87293 11.6282L7.2127 11.0883L6.45283 14.1228C6.19287 15.1626 6.47283 16.2674 7.1977 17.0623L10.1922 20.3317C10.5521 20.7267 10.8071 21.2016 10.9371 21.7165L11.8519 25.3809C12.0669 26.2357 12.9367 26.7607 13.7916 26.5457C14.6464 26.3307 15.1714 25.4609 14.9564 24.606L13.8466 20.1568C13.7166 19.6419 13.4616 19.1619 13.1017 18.772L10.8271 16.2874L11.6869 12.853L11.9619 13.6779C12.2269 14.4827 12.7968 15.1476 13.5466 15.5275L14.7114 16.1174C15.4913 16.5124 16.4411 16.1924 16.8361 15.4026C17.221 14.6177 16.9061 13.6479 16.1212 13.2529ZM4.67813 20.2867C4.67813 20.2867 4.2782 21.0566 3.96825 21.3616L1.46867 23.8661C0.843776 24.491 0.843776 25.5059 1.46867 26.1308C2.09357 26.7557 3.10339 26.7557 3.72829 26.1308L6.69779 23.1613C7.00274 22.8563 7.2427 22.4914 7.40767 22.0864L9.62449 19.8093C6.85996 16.7948 7.68982 17.7196 7.25489 17.1247L4.67813 20.2867Z" stroke="black" stroke-width="1.6"/>
</svg>
